REM DIRINDEX 1\2\6,1\2\7,1\2\8,1\2\9,1\3\10,1\3\11,1\4\12,1\4\13,1\4\14,1\5\15,1\5\16,1\5\17
REM DIRNAME folder01,folder02,folder03,folder04,folder05,folder06,folder07,folder08,folder09,folder10,folder11,folder12,folder13,folder14,folder15,folder16,folder17
TITLE ""
FILE "1400_3_sec13_1266_1283.mp3" MP3
  TRACK 01 AUDIO
    TITLE "0:"
    INDEX 01 00:00:00
  TRACK 02 AUDIO
    TITLE "17:cjc029_6972"
    INDEX 01 00:00:15
  TRACK 03 AUDIO
    TITLE "0:"
    INDEX 01 00:01:30
  TRACK 04 AUDIO
    TITLE "16:cjc029_6973"
    INDEX 01 00:01:40
  TRACK 05 AUDIO
    TITLE "0:"
    INDEX 01 00:03:00
  TRACK 06 AUDIO
    TITLE "17:cjc029_6974"
    INDEX 01 00:03:64
  TRACK 07 AUDIO
    TITLE "0:"
    INDEX 01 00:05:69
  TRACK 08 AUDIO
    TITLE "16:cjc029_6975"
    INDEX 01 00:06:00
  TRACK 09 AUDIO
    TITLE "0:"
    INDEX 01 00:07:29
  TRACK 10 AUDIO
    TITLE "17:cjc029_6976"
    INDEX 01 00:08:13
  TRACK 11 AUDIO
    TITLE "0:"
    INDEX 01 00:09:26
  TRACK 12 AUDIO
    TITLE "16:cjc029_6977"
    INDEX 01 00:09:34
  TRACK 13 AUDIO
    TITLE "0:"
    INDEX 01 00:10:53
  TRACK 14 AUDIO
    TITLE "17:cjc029_6978"
    INDEX 01 00:11:39
  TRACK 15 AUDIO
    TITLE "0:"
    INDEX 01 00:12:32
  TRACK 16 AUDIO
    TITLE "16:cjc029_6979"
    INDEX 01 00:12:38
  TRACK 17 AUDIO
    TITLE "0:"
    INDEX 01 00:13:39
  TRACK 18 AUDIO
    TITLE "17:cjc029_6980"
    INDEX 01 00:14:29
  TRACK 19 AUDIO
    TITLE "0:"
    INDEX 01 00:16:36
  TRACK 20 AUDIO
    TITLE "16:cjc029_6981"
    INDEX 01 00:16:42
  TRACK 21 AUDIO
    TITLE "0:"
    INDEX 01 00:17:35
  TRACK 22 AUDIO
    TITLE "17:cjc029_6982"
    INDEX 01 00:18:21
  TRACK 23 AUDIO
    TITLE "0:"
    INDEX 01 00:19:38
  TRACK 24 AUDIO
    TITLE "16:cjc029_6983"
    INDEX 01 00:19:44
  TRACK 25 AUDIO
    TITLE "0:"
    INDEX 01 00:20:53
  TRACK 26 AUDIO
    TITLE "17:cjc029_6984"
    INDEX 01 00:21:39
  TRACK 27 AUDIO
    TITLE "0:"
    INDEX 01 00:22:62
  TRACK 28 AUDIO
    TITLE "16:cjc029_6985"
    INDEX 01 00:22:68
  TRACK 29 AUDIO
    TITLE "0:"
    INDEX 01 00:24:02
  TRACK 30 AUDIO
    TITLE "17:cjc029_6986"
    INDEX 01 00:24:63
  TRACK 31 AUDIO
    TITLE "0:"
    INDEX 01 00:26:05
  TRACK 32 AUDIO
    TITLE "16:cjc029_6987"
    INDEX 01 00:26:13
  TRACK 33 AUDIO
    TITLE "0:"
    INDEX 01 00:27:32
  TRACK 34 AUDIO
    TITLE "17:cjc029_6988"
    INDEX 01 00:28:17
  TRACK 35 AUDIO
    TITLE "0:"
    INDEX 01 00:29:23
  TRACK 36 AUDIO
    TITLE "16:cjc029_6989"
    INDEX 01 00:29:27
  TRACK 37 AUDIO
    TITLE "0:"
    INDEX 01 00:30:38
  TRACK 38 AUDIO
    TITLE "17:cjc029_6990"
    INDEX 01 00:31:26
  TRACK 39 AUDIO
    TITLE "0:"
    INDEX 01 00:32:33
  TRACK 40 AUDIO
    TITLE "16:cjc029_6991"
    INDEX 01 00:32:41
  TRACK 41 AUDIO
    TITLE "0:"
    INDEX 01 00:33:60
  TRACK 42 AUDIO
    TITLE "17:cjc029_6992"
    INDEX 01 00:34:45
  TRACK 43 AUDIO
    TITLE "0:"
    INDEX 01 00:35:57
  TRACK 44 AUDIO
    TITLE "16:cjc029_6993"
    INDEX 01 00:35:63
  TRACK 45 AUDIO
    TITLE "0:"
    INDEX 01 00:36:74
  TRACK 46 AUDIO
    TITLE "17:cjc029_6994"
    INDEX 01 00:37:57
  TRACK 47 AUDIO
    TITLE "0:"
    INDEX 01 00:39:11
  TRACK 48 AUDIO
    TITLE "16:cjc029_6995"
    INDEX 01 00:39:15
  TRACK 49 AUDIO
    TITLE "0:"
    INDEX 01 00:40:42
  TRACK 50 AUDIO
    TITLE "17:cjc029_6996"
    INDEX 01 00:41:26
  TRACK 51 AUDIO
    TITLE "0:"
    INDEX 01 00:42:72
  TRACK 52 AUDIO
    TITLE "16:cjc029_6997"
    INDEX 01 00:43:03
  TRACK 53 AUDIO
    TITLE "0:"
    INDEX 01 00:44:05
  TRACK 54 AUDIO
    TITLE "17:cjc029_6998"
    INDEX 01 00:44:65
  TRACK 55 AUDIO
    TITLE "0:"
    INDEX 01 00:46:09
  TRACK 56 AUDIO
    TITLE "16:cjc029_6999"
    INDEX 01 00:46:15
  TRACK 57 AUDIO
    TITLE "0:"
    INDEX 01 00:47:17
  TRACK 58 AUDIO
    TITLE "17:cjc029_7000"
    INDEX 01 00:48:04
  TRACK 59 AUDIO
    TITLE "0:"
    INDEX 01 00:49:53
  TRACK 60 AUDIO
    TITLE "16:cjc029_7001"
    INDEX 01 00:49:59
  TRACK 61 AUDIO
    TITLE "0:"
    INDEX 01 00:50:60
  TRACK 62 AUDIO
    TITLE "17:cjc029_7002"
    INDEX 01 00:51:46
  TRACK 63 AUDIO
    TITLE "0:"
    INDEX 01 00:52:41
  TRACK 64 AUDIO
    TITLE "16:cjc029_7003"
    INDEX 01 00:52:51
  TRACK 65 AUDIO
    TITLE "0:"
    INDEX 01 00:53:60
  TRACK 66 AUDIO
    TITLE "17:cjc029_7004"
    INDEX 01 00:54:44
  TRACK 67 AUDIO
    TITLE "0:"
    INDEX 01 00:55:51
  TRACK 68 AUDIO
    TITLE "16:cjc029_7005"
    INDEX 01 00:55:55
  TRACK 69 AUDIO
    TITLE "0:"
    INDEX 01 00:56:69
  TRACK 70 AUDIO
    TITLE "17:cjc029_7006"
    INDEX 01 00:57:54
  TRACK 71 AUDIO
    TITLE "0:"
    INDEX 01 00:59:08
  TRACK 72 AUDIO
    TITLE "16:cjc029_7007"
    INDEX 01 00:59:14
  TRACK 73 AUDIO
    TITLE "0:"
    INDEX 01 01:00:08
